<svg xmlns="http://www.w3.org/2000/svg" version="1.1" xmlns:xlink="http://www.w3.org/1999/xlink" xmlns:svgjs="http://svgjs.dev/svgjs" width="2000" height="358" viewBox="0 0 2000 358"><g transform="matrix(1,0,0,1,-1.2121212121212466,-1.0635159996380992)"><svg viewBox="0 0 396 71" data-background-color="FFFFFF" preserveAspectRatio="xMidYMid meet" height="358" width="2000" xmlns="http://www.w3.org/2000/svg" xmlns:xlink="http://www.w3.org/1999/xlink"><g id="tight-bounds" transform="matrix(1,0,0,1,0.2400000000000091,0.21092077087794792)"><svg viewBox="0 0 395.52 70.5781584582441" height="70.5781584582441" width="395.52"><g><svg viewBox="0 0 395.52 70.5781584582441" height="70.5781584582441" width="395.52"><g><svg viewBox="0 0 395.52 70.5781584582441" height="70.5781584582441" width="395.52"><g id="textblocktransform"><svg viewBox="0 0 395.52 70.5781584582441" height="70.5781584582441" width="395.52" id="textblock"><g><svg viewBox="0 0 395.52 70.5781584582441" height="70.5781584582441" width="395.52"><g transform="matrix(1,0,0,1,0,0)"><svg width="395.52" viewBox="1 -37.5 210.14 37.5" height="70.5781584582441" data-palette-color="#ffffff"><path d="M43.05-37.5L43.05-24.9 21.3-24.9Q21.25-24.9 21.25-24.9 21.25-24.9 21.25-24.9L21.25-24.9 21.25-22.15Q21.25-22.1 21.25-22.08 21.25-22.05 21.25-22.05 21.25-22.05 21.28-22.05 21.3-22.05 21.3-22.05L21.3-22.05 42.3-22.05 42.3-15 21.3-15Q21.3-15 21.28-15 21.25-15 21.25-14.98 21.25-14.95 21.25-14.9L21.25-14.9 21.25-12.1Q21.25-12.1 21.25-12.1 21.25-12.1 21.25-12.1 21.25-12.1 21.28-12.1 21.3-12.1 21.3-12.1L21.3-12.1 43.35-12.1 43.35 0 1 0Q1-2.95 1-5.93 1-8.9 1-11.85 1-14.8 1-17.78 1-20.75 1-23.73 1-26.7 1-29.65L1-29.65Q1-31.6 1-33.58 1-35.55 1-37.5L1-37.5 43.05-37.5ZM45.25-37.5L75.05-37.5Q79.75-37.5 83.37-36.48 87-35.45 89.6-33.65 92.2-31.85 93.85-29.48 95.5-27.1 96.3-24.4 97.1-21.7 97.1-18.9L97.1-18.9Q97.1-15.35 95.82-11.98 94.55-8.6 91.87-5.9 89.2-3.2 85.02-1.6 80.85 0 75.05 0L75.05 0 45.25 0Q45.25-3.2 45.25-6.38 45.25-9.55 45.25-12.73 45.25-15.9 45.25-19.07 45.25-22.25 45.25-25.45L45.25-25.45Q45.25-28.45 45.25-31.48 45.25-34.5 45.25-37.5L45.25-37.5ZM71.05-23.1L71.05-23.1 65.1-23.1Q65.1-23.1 65.07-23.1 65.05-23.1 65.05-23.1 65.05-23.1 65.05-23.08 65.05-23.05 65.05-23L65.05-23 65.05-14.5Q65.05-14.45 65.05-14.43 65.05-14.4 65.05-14.4 65.05-14.4 65.07-14.4 65.1-14.4 65.1-14.4L65.1-14.4 71.15-14.4Q72.25-14.4 73.12-14.75 74-15.1 74.6-15.7 75.2-16.3 75.52-17.1 75.85-17.9 75.85-18.75L75.85-18.75Q75.85-19.95 75.27-20.95 74.7-21.95 73.65-22.53 72.6-23.1 71.05-23.1ZM98.59-37.5L98.59-37.5 137.94-37.5Q141.3-37.5 143.5-36.23 145.69-34.95 146.82-32.95 147.94-30.95 147.94-28.75L147.94-28.75Q147.94-26.55 146.8-24.48 145.65-22.4 143.32-21.1 141-19.8 137.5-19.8L137.5-19.8Q137.5-19.8 137.47-19.8 137.44-19.8 137.47-19.78 137.5-19.75 137.5-19.75L137.5-19.75Q141.55-19.75 144.19-18.3 146.84-16.85 148.15-14.6 149.44-12.35 149.44-9.85L149.44-9.85Q149.44-8 148.72-6.25 148-4.5 146.55-3.08 145.09-1.65 142.94-0.83 140.8 0 137.94 0L137.94 0 98.59 0Q98.59-3.4 98.59-6.78 98.59-10.15 98.59-13.55 98.59-16.95 98.59-20.33 98.59-23.7 98.59-27.1L98.59-27.1Q98.59-29.7 98.59-32.3 98.59-34.9 98.59-37.5ZM118.3-17.8L118.3-17.8Q118.3-17.25 118.3-16.7 118.3-16.15 118.3-15.6L118.3-15.6Q118.3-15.2 118.3-14.83 118.3-14.45 118.3-14.1 118.3-13.75 118.3-13.4L118.3-13.4Q118.3-13.35 118.3-13.35 118.3-13.35 118.34-13.35L118.34-13.35 125.44-13.35Q126.8-13.35 127.47-14.05 128.15-14.75 128.15-15.65L128.15-15.65Q128.15-16.1 128-16.48 127.84-16.85 127.57-17.18 127.3-17.5 126.87-17.68 126.44-17.85 125.89-17.85L125.89-17.85 118.34-17.85Q118.34-17.85 118.32-17.82 118.3-17.8 118.3-17.8ZM125.64-24.85L118.34-24.85Q118.3-24.85 118.3-24.83 118.3-24.8 118.3-24.8L118.3-24.8Q118.3-24.5 118.3-24.13 118.3-23.75 118.3-23.38 118.3-23 118.3-22.6L118.3-22.6Q118.3-22.05 118.3-21.48 118.3-20.9 118.3-20.4L118.3-20.4Q118.3-20.35 118.3-20.35 118.3-20.35 118.34-20.35L118.34-20.35 125.19-20.35Q126.09-20.35 126.69-20.68 127.3-21 127.59-21.53 127.89-22.05 127.89-22.65L127.89-22.65Q127.89-23.5 127.32-24.18 126.75-24.85 125.64-24.85L125.64-24.85ZM185.94-37.5L211.14-37.5Q211.14-33.75 211.14-30 211.14-26.25 211.14-22.5 211.14-18.75 211.14-15 211.14-11.25 211.14-7.5 211.14-3.75 211.14 0L211.14 0 191.89 0Q191.89-5.2 191.89-10.4 191.89-15.6 191.89-20.8L191.89-20.8Q191.89-20.8 191.89-20.83 191.89-20.85 191.87-20.85 191.84-20.85 191.82-20.85 191.79-20.85 191.79-20.83 191.79-20.8 191.79-20.8L191.79-20.8 186.89 0 174.14 0Q172.89-5.2 171.69-10.35 170.49-15.5 169.24-20.65L169.24-20.65Q169.24-20.65 169.24-20.68 169.24-20.7 169.22-20.7 169.19-20.7 169.19-20.7 169.19-20.7 169.17-20.7 169.14-20.7 169.14-20.68 169.14-20.65 169.14-20.65L169.14-20.65Q169.14-15.5 169.14-10.35 169.14-5.2 169.14 0L169.14 0 150.89 0Q150.89-3.75 150.89-7.53 150.89-11.3 150.89-15.08 150.89-18.85 150.89-22.63 150.89-26.4 150.89-30.15L150.89-30.15Q150.89-32 150.89-33.83 150.89-35.65 150.89-37.5L150.89-37.5 177.54-37.5Q178.29-34.4 178.99-31.33 179.69-28.25 180.42-25.15 181.14-22.05 181.84-18.95L181.84-18.95Q181.84-18.9 181.87-18.88 181.89-18.85 181.92-18.88 181.94-18.9 181.94-18.95L181.94-18.95 185.94-37.5Z" opacity="1" transform="matrix(1,0,0,1,0,0)" fill="#ffffff" class="wordmark-text-0" data-fill-palette-color="primary" id="text-0"></path></svg></g></svg></g></svg></g></svg></g><g></g></svg></g><defs></defs></svg><rect width="395.52" height="70.5781584582441" fill="none" stroke="none" visibility="hidden"></rect></g></svg></g></svg>